<svg width="124" height="85" viewBox="0 0 124 85" fill="none" xmlns="http://www.w3.org/2000/svg">
<path d="M74.4605 10.6207V29.1591C74.4605 32.637 75.9277 35.8962 78.8622 38.9369C81.9182 41.6199 85.1158 42.9613 88.455 42.9613H88.9407C89.0217 42.9613 89.0621 42.9216 89.0621 42.8421V39.1605V35.4789C89.0621 35.3795 88.5258 35.2802 87.4532 35.1808C85.4699 34.5448 84.1747 33.6704 83.5675 32.5575C82.6568 31.6433 82.2015 29.9242 82.2015 27.4003V10.6207H74.4605Z" fill="#F7F7F7"/>
<path d="M51.0844 14.5221H43.647C43.5863 14.5221 43.5458 14.5619 43.5256 14.6414V29.3379C43.5256 31.8619 44.4464 34.4753 46.2881 37.1781C49.4856 41.0336 53.3309 42.9613 57.8237 42.9613H58.188C60.7379 42.9613 63.2171 42.2558 65.6254 40.8448C70.1992 37.7842 72.4861 33.7499 72.4861 28.7417V14.6414C72.4861 14.5817 72.4456 14.542 72.3646 14.5221H64.8665C64.8058 14.5221 64.7653 14.5619 64.7451 14.6414V28.861C64.7451 29.5963 64.5832 30.421 64.2593 31.3352C62.8225 34.0182 60.7784 35.3597 58.1273 35.3597H57.8237C55.8404 35.3597 54.1201 34.515 52.663 32.8258C51.6916 31.8122 51.2059 30.0534 51.2059 27.5493V14.6414C51.2059 14.5817 51.1654 14.542 51.0844 14.5221Z" fill="#F7F7F7"/>
<path d="M114.017 13.9259H104.97C101.753 13.9259 98.6056 15.178 95.5294 17.682C92.352 20.8618 90.7634 24.2602 90.7634 27.8772V35.3597V42.8421C90.7634 42.9216 90.8038 42.9613 90.8848 42.9613H98.474C98.555 42.9613 98.5954 42.9216 98.5954 42.8421V29.6658C98.5954 27.7182 98.8282 26.3271 99.2936 25.4924C99.6782 24.6378 100.275 23.9025 101.085 23.2864C102.117 22.1735 104.019 21.617 106.792 21.617H114.017C114.098 21.617 114.138 21.5773 114.138 21.4978V14.0452C114.138 13.9855 114.098 13.9458 114.017 13.9259Z" fill="#F7F7F7"/>
<path d="M19.9871 40.8949L20.8401 37.8271L22.0277 32.9919C19.285 31.7495 17.4031 29.1912 17.4031 26.2369C17.4031 22.0637 21.1582 18.6807 25.7904 18.6807C30.4225 18.6807 34.1776 22.0637 34.1776 26.2369C34.1776 30.4101 30.4225 33.7931 25.7904 33.7931C25.4306 33.7931 25.0762 33.7727 24.7283 33.7331L26.6367 41.9585C35.0621 41.5368 41.7559 34.6588 41.7559 26.2805C41.7559 17.6318 34.6163 10.6207 25.8091 10.6207C17.0019 10.6207 9.8623 17.6318 9.8623 26.2805C9.8623 26.3734 9.86313 26.4662 9.86478 26.5588C9.86313 26.6108 9.8623 26.663 9.8623 26.7155V40.4174C9.8623 43.1578 12.1246 45.3793 14.9152 45.3793C17.5473 45.3793 19.3525 43.188 19.9871 40.8949C20.0006 40.9002 19.9735 40.8897 19.9871 40.8949Z" fill="#F7F7F7"/>
<path d="M22.9177 26.9421C23.5551 26.9421 24.0719 26.0174 24.0719 24.8768C24.0719 23.7361 23.5551 22.8114 22.9177 22.8114C22.2802 22.8114 21.7635 23.7361 21.7635 24.8768C21.7635 26.0174 22.2802 26.9421 22.9177 26.9421Z" fill="#F7F7F7"/>
<path d="M29.2274 26.9421C29.8648 26.9421 30.3816 26.0174 30.3816 24.8768C30.3816 23.7361 29.8648 22.8114 29.2274 22.8114C28.5899 22.8114 28.0732 23.7361 28.0732 24.8768C28.0732 26.0174 28.5899 26.9421 29.2274 26.9421Z" fill="#F7F7F7"/>
<path d="M7.275 80.2656C6.45208 80.2656 5.73333 80.1328 5.11875 79.8672C4.50938 79.5964 4.025 79.2266 3.66563 78.7578C3.31146 78.2839 3.10573 77.7422 3.04844 77.1328L3.04063 77.0469H4.44688L4.45469 77.1328C4.49115 77.5078 4.63438 77.8333 4.88438 78.1094C5.13958 78.3802 5.47813 78.5911 5.9 78.7422C6.32708 78.8932 6.81146 78.9688 7.35313 78.9688C7.86354 78.9688 8.31667 78.888 8.7125 78.7266C9.11354 78.5599 9.42865 78.3307 9.65781 78.0391C9.88698 77.7474 10.0016 77.4115 10.0016 77.0312V77.0234C10.0016 76.5547 9.82969 76.1615 9.48594 75.8438C9.14219 75.5208 8.58229 75.2734 7.80625 75.1016L6.55625 74.8281C5.42604 74.5781 4.60313 74.1927 4.0875 73.6719C3.57708 73.1458 3.32188 72.474 3.32188 71.6562V71.6484C3.32708 71.0234 3.49636 70.4714 3.82969 69.9922C4.16823 69.513 4.63438 69.138 5.22813 68.8672C5.82708 68.5964 6.51458 68.4609 7.29063 68.4609C8.04063 68.4609 8.70469 68.5964 9.28281 68.8672C9.86094 69.1328 10.3193 69.4922 10.6578 69.9453C11.0016 70.3984 11.1917 70.9062 11.2281 71.4688L11.2359 71.5781H9.82969L9.81406 71.4766C9.76198 71.1432 9.62656 70.849 9.40781 70.5938C9.18906 70.3333 8.8974 70.1276 8.53281 69.9766C8.16823 69.8255 7.74115 69.7526 7.25156 69.7578C6.78281 69.7578 6.36094 69.8307 5.98594 69.9766C5.61094 70.1224 5.31146 70.3333 5.0875 70.6094C4.86875 70.8802 4.75938 71.2135 4.75938 71.6094V71.6172C4.75938 72.0651 4.92604 72.4427 5.25938 72.75C5.59271 73.0573 6.14219 73.2943 6.90781 73.4609L8.15781 73.7422C8.94427 73.9141 9.57708 74.138 10.0563 74.4141C10.5354 74.6901 10.8844 75.0286 11.1031 75.4297C11.3271 75.8255 11.4391 76.2943 11.4391 76.8359V76.8438C11.4391 77.5469 11.2672 78.1536 10.9234 78.6641C10.5797 79.1745 10.0953 79.5703 9.47031 79.8516C8.84531 80.1276 8.11354 80.2656 7.275 80.2656ZM16.2031 80.0625C15.3385 80.0625 14.7109 79.888 14.3203 79.5391C13.9349 79.1901 13.7422 78.6146 13.7422 77.8125V72.7031H12.4141V71.5781H13.7422V69.3984H15.1484V71.5781H16.9922V72.7031H15.1484V77.4688C15.1484 77.9635 15.2422 78.3203 15.4297 78.5391C15.6172 78.7526 15.9297 78.8594 16.3672 78.8594C16.487 78.8594 16.5885 78.8568 16.6719 78.8516C16.7604 78.8464 16.8672 78.8385 16.9922 78.8281V79.9844C16.862 80.0052 16.7318 80.0234 16.6016 80.0391C16.4714 80.0547 16.3385 80.0625 16.2031 80.0625ZM19.3422 82.9531C19.2536 82.9531 19.1547 82.9479 19.0453 82.9375C18.9359 82.9323 18.8344 82.9219 18.7406 82.9062V81.7891C18.824 81.8047 18.9151 81.8151 19.0141 81.8203C19.113 81.8255 19.2094 81.8281 19.3031 81.8281C19.6885 81.8281 20.0036 81.7292 20.2484 81.5312C20.4984 81.3333 20.699 80.9922 20.85 80.5078L21.0063 80.0078L17.8891 71.5781H19.3422L21.9359 79.3594L21.3969 78.5078H22.0375L21.4984 79.3594L24.0844 71.5781H25.5141L22.225 80.5156C21.9958 81.1458 21.7536 81.638 21.4984 81.9922C21.2432 82.3464 20.9438 82.5938 20.6 82.7344C20.2615 82.8802 19.8422 82.9531 19.3422 82.9531ZM26.9891 80V68.2344H28.3484V80H26.9891ZM33.9953 80.1484C33.1932 80.1484 32.5031 79.9714 31.925 79.6172C31.3521 79.263 30.9094 78.763 30.5969 78.1172C30.2896 77.4661 30.1359 76.7005 30.1359 75.8203V75.8125C30.1359 74.9427 30.2896 74.1797 30.5969 73.5234C30.9094 72.8672 31.3495 72.3542 31.9172 71.9844C32.4849 71.6146 33.149 71.4297 33.9094 71.4297C34.675 71.4297 35.3313 71.6068 35.8781 71.9609C36.4302 72.3151 36.8521 72.8099 37.1438 73.4453C37.4406 74.0755 37.5891 74.8099 37.5891 75.6484V76.1797H30.8391V75.0938H36.8938L36.2219 76.0859V75.5469C36.2219 74.8854 36.1229 74.3411 35.925 73.9141C35.7271 73.487 35.4536 73.1693 35.1047 72.9609C34.7557 72.7474 34.3547 72.6406 33.9016 72.6406C33.4484 72.6406 33.0422 72.7526 32.6828 72.9766C32.3286 73.1953 32.0474 73.5208 31.8391 73.9531C31.6307 74.3854 31.5266 74.9167 31.5266 75.5469V76.0859C31.5266 76.6849 31.6281 77.1979 31.8313 77.625C32.0344 78.0469 32.3234 78.3724 32.6984 78.6016C33.0734 78.8255 33.5161 78.9375 34.0266 78.9375C34.4068 78.9375 34.7375 78.8854 35.0188 78.7812C35.3 78.6771 35.5318 78.5443 35.7141 78.3828C35.8964 78.2214 36.024 78.0573 36.0969 77.8906L36.1281 77.8203H37.4875L37.4719 77.8828C37.399 78.1693 37.2688 78.4479 37.0813 78.7188C36.899 78.9844 36.662 79.2266 36.3703 79.4453C36.0786 79.6589 35.7323 79.8307 35.3313 79.9609C34.9354 80.0859 34.4901 80.1484 33.9953 80.1484ZM45.0234 80L42.6641 71.5781H44.0234L45.6797 78.3125H45.8047L47.6875 71.5781H48.9766L50.8594 78.3125H50.9844L52.6406 71.5781H53.9922L51.6328 80H50.2656L48.3828 73.4844H48.2578L46.3828 80H45.0234ZM55.4203 80V71.5781H56.7797V80H55.4203ZM56.1078 69.9531C55.8526 69.9531 55.6313 69.862 55.4438 69.6797C55.2615 69.4922 55.1703 69.2708 55.1703 69.0156C55.1703 68.7552 55.2615 68.5339 55.4438 68.3516C55.6313 68.1693 55.8526 68.0781 56.1078 68.0781C56.3682 68.0781 56.5896 68.1693 56.7719 68.3516C56.9542 68.5339 57.0453 68.7552 57.0453 69.0156C57.0453 69.2708 56.9542 69.4922 56.7719 69.6797C56.5896 69.862 56.3682 69.9531 56.1078 69.9531ZM61.9344 80.0625C61.0698 80.0625 60.4422 79.888 60.0516 79.5391C59.6661 79.1901 59.4734 78.6146 59.4734 77.8125V72.7031H58.1453V71.5781H59.4734V69.3984H60.8797V71.5781H62.7234V72.7031H60.8797V77.4688C60.8797 77.9635 60.9734 78.3203 61.1609 78.5391C61.3484 78.7526 61.6609 78.8594 62.0984 78.8594C62.2182 78.8594 62.3198 78.8568 62.4031 78.8516C62.4917 78.8464 62.5984 78.8385 62.7234 78.8281V79.9844C62.5932 80.0052 62.463 80.0234 62.3328 80.0391C62.2026 80.0547 62.0698 80.0625 61.9344 80.0625ZM64.4328 80V68.2344H65.7922V72.8438H65.9172C66.1307 72.3958 66.438 72.0495 66.8391 71.8047C67.2401 71.5547 67.7505 71.4297 68.3703 71.4297C69.0005 71.4297 69.5344 71.5521 69.9719 71.7969C70.4094 72.0365 70.7427 72.388 70.9719 72.8516C71.201 73.3151 71.3156 73.8802 71.3156 74.5469V80H69.9563V74.875C69.9563 74.1146 69.7948 73.5521 69.4719 73.1875C69.1542 72.8177 68.6594 72.6328 67.9875 72.6328C67.5396 72.6328 67.1516 72.7292 66.8234 72.9219C66.4953 73.1146 66.2401 73.388 66.0578 73.7422C65.8807 74.0964 65.7922 74.5208 65.7922 75.0156V80H64.4328ZM77.5078 80V71.5781H78.8672V80H77.5078ZM78.1953 69.9531C77.9401 69.9531 77.7188 69.862 77.5312 69.6797C77.349 69.4922 77.2578 69.2708 77.2578 69.0156C77.2578 68.7552 77.349 68.5339 77.5312 68.3516C77.7188 68.1693 77.9401 68.0781 78.1953 68.0781C78.4557 68.0781 78.6771 68.1693 78.8594 68.3516C79.0417 68.5339 79.1328 68.7552 79.1328 69.0156C79.1328 69.2708 79.0417 69.4922 78.8594 69.6797C78.6771 69.862 78.4557 69.9531 78.1953 69.9531ZM81.0297 80V71.5781H82.3891V72.8438H82.5141C82.7276 72.3958 83.0349 72.0495 83.4359 71.8047C83.837 71.5547 84.3474 71.4297 84.9672 71.4297C85.9151 71.4297 86.6417 71.7005 87.1469 72.2422C87.6573 72.7786 87.9125 73.5469 87.9125 74.5469V80H86.5531V74.875C86.5531 74.1146 86.3917 73.5521 86.0687 73.1875C85.751 72.8177 85.2562 72.6328 84.5844 72.6328C84.1365 72.6328 83.7484 72.7292 83.4203 72.9219C83.0922 73.1146 82.837 73.388 82.6547 73.7422C82.4776 74.0964 82.3891 74.5208 82.3891 75.0156V80H81.0297ZM92.9656 80.0625C92.101 80.0625 91.4734 79.888 91.0828 79.5391C90.6974 79.1901 90.5047 78.6146 90.5047 77.8125V72.7031H89.1766V71.5781H90.5047V69.3984H91.9109V71.5781H93.7547V72.7031H91.9109V77.4688C91.9109 77.9635 92.0047 78.3203 92.1922 78.5391C92.3797 78.7526 92.6922 78.8594 93.1297 78.8594C93.2495 78.8594 93.351 78.8568 93.4344 78.8516C93.5229 78.8464 93.6297 78.8385 93.7547 78.8281V79.9844C93.6245 80.0052 93.4943 80.0234 93.3641 80.0391C93.2339 80.0547 93.101 80.0625 92.9656 80.0625ZM98.7141 80.1484C97.912 80.1484 97.2219 79.9714 96.6438 79.6172C96.0708 79.263 95.6281 78.763 95.3156 78.1172C95.0083 77.4661 94.8547 76.7005 94.8547 75.8203V75.8125C94.8547 74.9427 95.0083 74.1797 95.3156 73.5234C95.6281 72.8672 96.0682 72.3542 96.6359 71.9844C97.2036 71.6146 97.8677 71.4297 98.6281 71.4297C99.3938 71.4297 100.05 71.6068 100.597 71.9609C101.149 72.3151 101.571 72.8099 101.863 73.4453C102.159 74.0755 102.308 74.8099 102.308 75.6484V76.1797H95.5578V75.0938H101.613L100.941 76.0859V75.5469C100.941 74.8854 100.842 74.3411 100.644 73.9141C100.446 73.487 100.172 73.1693 99.8234 72.9609C99.4745 72.7474 99.0734 72.6406 98.6203 72.6406C98.1672 72.6406 97.7609 72.7526 97.4016 72.9766C97.0474 73.1953 96.7661 73.5208 96.5578 73.9531C96.3495 74.3854 96.2453 74.9167 96.2453 75.5469V76.0859C96.2453 76.6849 96.3469 77.1979 96.55 77.625C96.7531 78.0469 97.0422 78.3724 97.4172 78.6016C97.7922 78.8255 98.2349 78.9375 98.7453 78.9375C99.1255 78.9375 99.4563 78.8854 99.7375 78.7812C100.019 78.6771 100.251 78.5443 100.433 78.3828C100.615 78.2214 100.743 78.0573 100.816 77.8906L100.847 77.8203H102.206L102.191 77.8828C102.118 78.1693 101.988 78.4479 101.8 78.7188C101.618 78.9844 101.381 79.2266 101.089 79.4453C100.797 79.6589 100.451 79.8307 100.05 79.9609C99.6542 80.0859 99.2089 80.1484 98.7141 80.1484ZM104.017 80V71.5781H105.377V72.8438H105.502C105.715 72.3958 106.022 72.0495 106.423 71.8047C106.824 71.5547 107.335 71.4297 107.955 71.4297C108.903 71.4297 109.629 71.7005 110.134 72.2422C110.645 72.7786 110.9 73.5469 110.9 74.5469V80H109.541V74.875C109.541 74.1146 109.379 73.5521 109.056 73.1875C108.739 72.8177 108.244 72.6328 107.572 72.6328C107.124 72.6328 106.736 72.7292 106.408 72.9219C106.08 73.1146 105.824 73.388 105.642 73.7422C105.465 74.0964 105.377 74.5208 105.377 75.0156V80H104.017ZM115.953 80.0625C115.089 80.0625 114.461 79.888 114.07 79.5391C113.685 79.1901 113.492 78.6146 113.492 77.8125V72.7031H112.164V71.5781H113.492V69.3984H114.898V71.5781H116.742V72.7031H114.898V77.4688C114.898 77.9635 114.992 78.3203 115.18 78.5391C115.367 78.7526 115.68 78.8594 116.117 78.8594C116.237 78.8594 116.339 78.8568 116.422 78.8516C116.51 78.8464 116.617 78.8385 116.742 78.8281V79.9844C116.612 80.0052 116.482 80.0234 116.352 80.0391C116.221 80.0547 116.089 80.0625 115.953 80.0625ZM119.483 80.0781C119.207 80.0781 118.967 79.9792 118.764 79.7812C118.566 79.5781 118.467 79.3385 118.467 79.0625C118.467 78.7812 118.566 78.5417 118.764 78.3438C118.967 78.1458 119.207 78.0469 119.483 78.0469C119.764 78.0469 120.004 78.1458 120.202 78.3438C120.399 78.5417 120.498 78.7812 120.498 79.0625C120.498 79.3385 120.399 79.5781 120.202 79.7812C120.004 79.9792 119.764 80.0781 119.483 80.0781Z" fill="#F7F7F7"/>
</svg>
